GRF
version=1
nRows=24
nColumns=19
inDegrees=no
endheader
time	right_ground_force_vx	right_ground_force_vy	right_ground_force_vz	right_ground_force_px	right_ground_force_py	right_ground_force_pz	right_ground_torque_x	right_ground_torque_y	right_ground_torque_z	left_ground_force_vx	left_ground_force_vy	left_ground_force_vz	left_ground_force_px	left_ground_force_py	left_ground_force_pz	left_ground_torque_x	left_ground_torque_y	left_ground_torque_z
      2.39000000	    -47.51692820	    192.88548396	      7.01790151	     -0.34745346	      0.00000000	     -0.18101125	      0.00000000	      8.25014222	      0.00000000	     -0.00000000	      0.00000000	     -0.00000000	      0.23068912	      0.00000000	     -0.35972532	      0.00000000	     -0.00000000	     -0.00000000
      2.40000000	    -40.38996874	    154.85555332	      5.14005328	     -0.34795490	      0.00000000	     -0.18202407	      0.00000000	      6.88202805	      0.00000000	     -0.00000000	      0.00000000	     -0.00000000	      0.23068912	      0.00000000	     -0.35972532	      0.00000000	     -0.00000000	     -0.00000000
      2.41000000	    -32.55129846	    118.60436548	      3.53727574	     -0.34841388	      0.00000000	     -0.18293183	      0.00000000	      5.45742440	      0.00000000	     -0.00000000	      0.00000000	     -0.00000000	      0.23068912	      0.00000000	     -0.35972532	      0.00000000	     -0.00000000	     -0.00000000
      2.42000000	    -24.72872722	     86.14308491	      2.27279288	     -0.34881301	      0.00000000	     -0.18368912	      0.00000000	      4.08935448	      0.00000000	     -0.00000000	      0.00000000	     -0.00000000	      0.23068912	      0.00000000	     -0.35972532	      0.00000000	     -0.00000000	     -0.00000000
      2.43000000	    -17.61389859	     58.99484600	      1.35506804	     -0.34913860	      0.00000000	     -0.18427398	      0.00000000	      2.87924725	      0.00000000	     -0.00000000	      0.00000000	     -0.00000000	      0.23068912	      0.00000000	     -0.35972532	      0.00000000	     -0.00000000	     -0.00000000
      2.44000000	    -11.70720469	     37.89647786	      0.74505857	     -0.34938563	      0.00000000	     -0.18469061	      0.00000000	      1.89518210	      0.00000000	     -0.00000000	      0.00000000	     -0.00000000	      0.23068912	      0.00000000	     -0.35972532	      0.00000000	     -0.00000000	     -0.00000000
      2.45000000	     -7.23050351	     22.72565012	      0.37534574	     -0.34955907	      0.00000000	     -0.18496361	      0.00000000	      1.16094788	      0.00000000	     -0.00000000	      0.00000000	     -0.00000000	      0.23068912	      0.00000000	     -0.35972532	      0.00000000	     -0.00000000	     -0.00000000
      2.46000000	     -4.13444167	     12.66908162	      0.17199239	     -0.34967141	      0.00000000	     -0.18512787	      0.00000000	      0.65926350	      0.00000000	     -0.00000000	      0.00000000	     -0.00000000	      0.23068912	      0.00000000	     -0.35972532	      0.00000000	     -0.00000000	     -0.00000000
      2.47000000	     -2.18191099	      6.54179241	      0.07103690	     -0.34973844	      0.00000000	     -0.18521848	      0.00000000	      0.34587873	      0.00000000	     -0.00000000	      0.00000000	     -0.00000000	      0.23068912	      0.00000000	     -0.35972532	      0.00000000	     -0.00000000	     -0.00000000
      2.48000000	     -1.05990677	      3.11888983	      0.02611226	     -0.34977523	      0.00000000	     -0.18526426	      0.00000000	      0.16716994	      0.00000000	     -0.00000000	      0.00000000	     -0.00000000	      0.23068912	      0.00000000	     -0.35972532	      0.00000000	     -0.00000000	     -0.00000000
      2.49000000	     -0.47284841	      1.36924063	      0.00836882	     -0.34979380	      0.00000000	     -0.18528543	      0.00000000	      0.07425125	      0.00000000	     -0.00000000	      0.00000000	     -0.00000000	      0.23068912	      0.00000000	     -0.35972532	      0.00000000	     -0.00000000	     -0.00000000
      2.50000000	     -0.19335829	      0.55224670	      0.00224627	     -0.34980241	      0.00000000	     -0.18529438	      0.00000000	      0.03024591	      0.00000000	     -0.00000000	      0.00000000	     -0.00000000	      0.23068912	      0.00000000	     -0.35972532	      0.00000000	     -0.00000000	     -0.00000000
      2.51000000	     -0.07235699	      0.20422372	      0.00045423	     -0.34980607	      0.00000000	     -0.18529784	      0.00000000	      0.01127956	      0.00000000	     -0.00000000	      0.00000000	     -0.00000000	      0.23068912	      0.00000000	     -0.35972532	      0.00000000	     -0.00000000	     -0.00000000
      2.52000000	     -0.02474413	      0.06913090	      0.00003908	     -0.34980749	      0.00000000	     -0.18529906	      0.00000000	      0.00384541	      0.00000000	     -0.00000000	      0.00000000	     -0.00000000	      0.23068912	      0.00000000	     -0.35972532	      0.00000000	     -0.00000000	     -0.00000000
      2.53000000	     -0.00772370	      0.02139008	     -0.00001981	     -0.34980800	      0.00000000	     -0.18529946	      0.00000000	      0.00119695	      0.00000000	     -0.00000000	      0.00000000	     -0.00000000	      0.23068912	      0.00000000	     -0.35972532	      0.00000000	     -0.00000000	     -0.00000000
      2.54000000	     -0.00219838	      0.00604225	     -0.00001370	     -0.34980817	      0.00000000	     -0.18529958	      0.00000000	      0.00033981	      0.00000000	     -0.00000000	      0.00000000	     -0.00000000	      0.23068912	      0.00000000	     -0.35972532	      0.00000000	     -0.00000000	     -0.00000000
      2.55000000	     -0.00057007	      0.00155661	     -0.00000541	     -0.34980822	      0.00000000	     -0.18529961	      0.00000000	      0.00008791	      0.00000000	     -0.00000000	      0.00000000	     -0.00000000	      0.23068912	      0.00000000	     -0.35972532	      0.00000000	     -0.00000000	     -0.00000000
      2.56000000	     -0.00013458	      0.00036540	     -0.00000167	     -0.34980823	      0.00000000	     -0.18529962	      0.00000000	      0.00002071	      0.00000000	     -0.00000000	      0.00000000	     -0.00000000	      0.23068912	      0.00000000	     -0.35972532	      0.00000000	     -0.00000000	     -0.00000000
      2.57000000	     -0.00002891	      0.00007810	     -0.00000043	     -0.34980823	      0.00000000	     -0.18529962	      0.00000000	      0.00000444	      0.00000000	     -0.00000000	      0.00000000	     -0.00000000	      0.23068912	      0.00000000	     -0.35972532	      0.00000000	     -0.00000000	     -0.00000000
      2.58000000	     -0.00000565	      0.00001519	     -0.00000010	     -0.34980823	      0.00000000	     -0.18529962	      0.00000000	      0.00000087	      0.00000000	     -0.00000000	      0.00000000	     -0.00000000	      0.23068912	      0.00000000	     -0.35972532	      0.00000000	     -0.00000000	     -0.00000000
      2.59000000	     -0.00000100	      0.00000269	     -0.00000002	     -0.34980823	      0.00000000	     -0.18529962	      0.00000000	      0.00000015	      0.00000000	     -0.00000000	      0.00000000	     -0.00000000	      0.23068912	      0.00000000	     -0.35972532	      0.00000000	     -0.00000000	     -0.00000000
      2.60000000	     -0.00000016	      0.00000043	     -0.00000000	     -0.34980823	      0.00000000	     -0.18529962	      0.00000000	      0.00000002	      0.00000000	     -0.00000000	      0.00000000	     -0.00000000	      0.23068912	      0.00000000	     -0.35972532	      0.00000000	     -0.00000000	     -0.00000000
      2.61000000	     -0.00000002	      0.00000006	     -0.00000000	     -0.34980823	      0.00000000	     -0.18529962	      0.00000000	      0.00000000	      0.00000000	     -0.00000000	      0.00000000	     -0.00000000	      0.23068912	      0.00000000	     -0.35972532	      0.00000000	     -0.00000000	     -0.00000000
      2.62000000	     -0.00000000	      0.00000001	     -0.00000000	     -0.34980823	      0.00000000	     -0.18529962	      0.00000000	      0.00000000	      0.00000000	     -0.00000000	      0.00000000	     -0.00000000	      0.23068912	      0.00000000	     -0.35972532	      0.00000000	     -0.00000000	     -0.00000000
